<?xml version="1.0" ?>
<!-- Uploaded to: SVG Repo, www.svgrepo.com, Generator: SVG Repo Mixer Tools -->
<svg width="800px" height="800px" viewBox="0 0 20 20" xmlns="http://www.w3.org/2000/svg">
<defs>
<style>.cls-1{fill:none;}.cls-2{fill:#1b5cf3;}.cls-3{fill:#f92115;}.cls-4{fill:#190d15;}</style>
</defs>
<g data-name="Layer 2" id="Layer_2">
<g data-name="Layer 1" id="Layer_1-2">
<rect class="cls-1" height="20" width="20"/>
<path class="cls-2" d="M17.88,18H6.81a.73.73,0,0,1-.73-.73V6.57A.73.73,0,0,1,6.4,6l5.53-3.83a.74.74,0,0,1,.83,0L18.29,6a.73.73,0,0,1,.32.6V17.29A.73.73,0,0,1,17.88,18Z"/>
<circle class="cls-3" cx="5.86" cy="6.89" r="5"/>
<path class="cls-4" d="M10.86,6.89A4.93,4.93,0,0,0,9.68,3.7L6.4,6a.73.73,0,0,0-.32.6v5.3A5,5,0,0,0,10.86,6.89Z"/>
</g>
</g>
</svg>